<?xml version="1.0" standalone="no"?>
<!DOCTYPE svg PUBLIC "-//W3C//DTD SVG 20010904//EN"
 "http://www.w3.org/TR/2001/REC-SVG-20010904/DTD/svg10.dtd">
<svg version="1.0" xmlns="http://www.w3.org/2000/svg"
 width="253.000000pt" height="253.000000pt" viewBox="0 0 253.000000 253.000000"
 preserveAspectRatio="xMidYMid meet">
<metadata>
Created by potrace 1.14, written by Peter Selinger 2001-2017
</metadata>
<g transform="translate(0.000000,253.000000) scale(0.100000,-0.100000)"
fill="#000000" stroke="none">
<path d="M267 2522 c-8 -14 -4 -1531 4 -1594 35 -263 147 -469 350 -642 81
-68 289 -192 302 -179 4 3 7 0 7 -7 0 -7 3 -10 7 -7 3 4 11 3 17 -1 17 -13
123 -49 214 -72 84 -22 111 -22 192 -1 294 77 491 193 687 405 58 63 182 305
174 340 -1 4 4 14 10 22 6 8 8 14 4 14 -4 0 -2 6 4 13 6 8 9 16 6 19 -3 3 -1
29 5 58 9 49 11 295 10 1367 l0 272 -995 0 c-547 0 -996 -3 -998 -7z"/>
</g>
</svg>
